<svg id="Layer_1" data-name="Layer 1" xmlns="http://www.w3.org/2000/svg" viewBox="0 0 1000 1000"><defs><style>.cls-1{fill:purple;}</style></defs><title>TransparentSingle</title><path class="cls-1" d="M843.56,408V301.66l-92.07-53.15-53.15-92.06H592l-92-53.16-92,53.16H301.66l-53.15,92.06-92.07,53.15V408L103.3,500l53.14,92v106.3l92.07,53.15,53.15,92.07H408l92,53.15,92-53.15h106.3l53.15-92.07,92.07-53.15V592l53.14-92ZM744,565.39l-47.87,47.87-17.52,65.36-65.36,17.52L565.39,744,500,726.49,434.61,744l-47.87-47.87-65.36-17.52-17.52-65.36L256,565.39,273.51,500,256,434.61l47.87-47.87,17.52-65.36,65.36-17.52L434.61,256,500,273.51,565.39,256l47.87,47.87,65.36,17.52,17.52,65.36L744,434.61,726.49,500Z"/><polygon class="cls-1" points="617.76 432.01 586.21 413.79 567.99 382.24 531.55 382.24 500 364.02 468.44 382.24 432.01 382.24 413.79 413.79 382.24 432.01 382.24 468.44 364.02 500 382.24 531.55 382.24 567.99 413.79 586.21 432.01 617.76 468.44 617.76 500 635.98 531.55 617.76 567.99 617.76 586.21 586.21 617.76 567.99 617.76 531.55 635.98 500 617.76 468.44 617.76 432.01"/></svg>